<?xml version="1.0" encoding="utf-8"?>
<!-- Generator: Adobe Illustrator 25.0.1, SVG Export Plug-In . SVG Version: 6.00 Build 0)  -->
<svg version="1.1" id="Layer_1" xmlns="http://www.w3.org/2000/svg" xmlns:xlink="http://www.w3.org/1999/xlink" x="0px" y="0px"
	 viewBox="0 0 595.28 841.89" style="enable-background:new 0 0 595.28 841.89;" xml:space="preserve">
<style type="text/css">
	.st0{fill:#EDB521;}
	.st1{fill:#503D1C;}
	.st2{fill:#503D1B;}
	.st3{fill:#534020;}
	.st4{fill:#EEBA2E;}
	.st5{fill:none;}
	.st6{font-family:'RageItalic';}
	.st7{font-size:72px;}
</style>
<path class="st0" d="M302.84,313.64c8.42-3.19,16.42-6.48,24.6-9.26c15.43-5.25,30.89-5.38,45.51,2.36
	c14.95,7.92,22.86,20.78,21.96,37.83c-0.94,17.63-10.62,29.62-26.74,36.41c-9.44,3.97-19.35,5.23-29.71,3.77
	c3.09-0.88,6.19-1.72,9.27-2.64c11.02-3.3,21.04-8.26,28.5-17.37c13.82-16.85,9.15-39.87-10.28-49.74
	c-11.84-6.01-24.39-7.2-37.38-4.4c-6.97,1.5-13.82,3.74-21.05,3.86C306.09,314.48,304.56,315.07,302.84,313.64z"/>
<path class="st1" d="M336.18,414.97c-32.68-5.55-65.34-4.5-98.51,0.84c1.19-5.67,1.76-10.97,3.83-15.96
	c2.91,0.32,2.39,2.72,2.13,4.3c-0.35,2.12,0.86,2.75,2.18,3.57c29.45-4.71,58.67-4.56,87.47,4.15c1.73,0.52,3.38,1.3,5.07,1.96
	C338.46,415.81,337.25,415.26,336.18,414.97z"/>
<path class="st1" d="M227.56,283.21c8.09,0.37,15.48,3.13,22.66,6.61c16.31,7.91,31.42,17.98,47.53,26.24
	c14.57,7.47,29.39,14.22,46.33,13.57c-21.12,3.69-39.53-4.49-57.77-13.42c-0.41-1.85-2.01-2.63-3.39-3.42
	c-13.51-7.74-26.77-15.91-41.03-22.3c-5.65-2.53-11.08-3.19-16.64-0.1c-2.07,1.11-4.6,0.71-6.62,2
	c-8.46,0.87-15.72,4.34-21.86,10.18c-1.93-0.8-3.66-0.08-5.39,0.72c-2.9,0.67-5.37,3.38-8.73,1.87c0.16-0.75,0.11-1.61,1-2
	c1.18-1.18,2.41-2.29,3.97-2.97c12.33-5.36,24.61-10.97,37.75-14.01C228.04,285.56,225.62,283.15,227.56,283.21z"/>
<path class="st1" d="M231.84,365.84c10.02,0.07,19.89-0.95,29.51-3.92c0.78-0.47,1.77-0.62,2.09,0.28c0.46,1.31-0.56,2.2-1.61,2.72
	c-3.7,1.81-7.51,3.34-11.48,4.53c-4.24,1.27-8.76,1.53-12.81,3.47c-19.34,2.05-35.25-3.93-46.88-19.95c2.95-4.4,6.36-4.86,9.76-1.08
	c5.1,5.67,11.27,9.63,18.4,12.25C223.05,365.68,227.36,366.31,231.84,365.84z"/>
<path class="st2" d="M182.65,305.15c2.99-0.99,5.98-1.98,8.97-2.97c2.4,0.31,1.23,2.04,0.79,2.8c-8.15,14.32-4.17,27.61,3.27,40.65
	c0.25,0.43,0.39,0.91,0.53,1.38c-0.6,4.03-3.68,3.99-6.69,4.05c-9.48-12.86-13.59-26.82-8.79-42.61
	C181.09,307.25,181.34,305.87,182.65,305.15z"/>
<path class="st1" d="M224.6,289.39c6.09-3.89,12.11-2.82,18.26,0.01c14.42,6.65,27.98,14.86,41.67,22.83
	c1.28,0.75,3.8,1.5,1.77,3.97c-9.85-4.79-19.75-9.48-29.54-14.39c-9.58-4.8-19.46-8.51-30.2-9.63
	C225.85,291.3,223.09,291.84,224.6,289.39z"/>
<path class="st3" d="M227.56,283.21c-0.07,2.02-0.31,3.75-2.84,4.38c-14.31,3.54-27.41,10.3-41.08,15.57
	c2.98-7.81,9.26-12.34,16.33-15.81C208.66,283.08,217.88,281.38,227.56,283.21z"/>
<path class="st4" d="M336.3,364.68c-3.7,18.76-0.5,36.01,11.92,51.94C330.68,410.31,321.9,381.42,336.3,364.68z"/>
<path class="st1" d="M195.6,347.03c-8.72-9.51-12.89-31.69-4.66-41.84c0.62-0.77,1.75-1.72,0.68-3.01c1.78-0.76,3.73-3.84,5.15,0.38
	c-9.98,12.05-8.05,24.71-1.88,37.56c1.13,2.36,2.47,4.63,3.72,6.94C197.58,349.4,196.59,347.73,195.6,347.03z"/>
<path class="st1" d="M237.54,372.91c0.73-2.74,3.21-2.5,5.2-2.9c6.52-1.31,12.75-3.48,18.8-6.19c1.71-0.77,1.72-1.45-0.18-1.91
	c5.97-2.72,11.95-5.43,17.92-8.15c1.03-0.17,1.41,0.28,1.23,1.28C267.92,365.18,253.88,371.82,237.54,372.91z"/>
<path class="st1" d="M195.6,347.03c1-0.29,1.99,1.06,3,0.03c8.3,11.17,19.65,16.95,33.24,18.78c-7.27,3.46-13.52-0.35-19.63-3.2
	c-5.03-2.35-9.72-5.51-13.06-10.3c-2.99-4.3-5.69-0.17-8.49,0.63c-0.38-0.63-0.76-1.26-1.14-1.89
	C191.4,349.51,194.94,350.43,195.6,347.03z"/>
<path class="st1" d="M245.8,407.73c-1.95-1.2-2.13,1.32-3.74,1.77c-0.81-3.24,2.11-6.72-0.57-9.64c0.57-7.81,3.52-15.37,1.89-24.64
	c2.77,4.45,3.14,8.09,3.4,11.79C247.3,393.96,245.89,400.81,245.8,407.73z"/>
<path class="st3" d="M224.6,289.39c-0.1,1.46,1.41,1.79,1.96,2.8c-2.65,0.07-5.29,0.13-7.94,0.2
	C220.26,290.67,222.63,290.43,224.6,289.39z"/>
<path class="st1" d="M280.5,355.04c-0.41-0.43-0.82-0.85-1.23-1.28c1.54-1.63,3.42-2.69,6.64-4.15
	C283.85,352.43,282.65,354.18,280.5,355.04z"/>
<path class="st1" d="M336.18,414.97c0.72-0.38,1.45-0.76,2.17-1.13c1.81,0.21,3.42,0.79,4.62,2.63
	C340.51,416.17,338.22,416.17,336.18,414.97z"/>
<rect x="69.89" y="446.8" class="st5" width="455.49" height="74.6"/>
<text transform="matrix(1 0 0 1 69.8934 492.8841)" class="st6 st7">Cooking Variant</text>
</svg>
